<?xml version="1.0" standalone="no"?>
<!DOCTYPE svg PUBLIC "-//W3C//DTD SVG 20010904//EN"
 "http://www.w3.org/TR/2001/REC-SVG-20010904/DTD/svg10.dtd">
<svg version="1.0" xmlns="http://www.w3.org/2000/svg"
 width="512.000000pt" height="512.000000pt" viewBox="0 0 512.000000 512.000000"
 preserveAspectRatio="xMidYMid meet">
<metadata>
Created by potrace 1.11, written by Peter Selinger 2001-2013
</metadata>
<g transform="translate(0.000000,512.000000) scale(0.100000,-0.100000)"
fill="#000000" stroke="none">
<path d="M2067 5109 c-77 -18 -141 -69 -180 -142 l-22 -42 -3 -777 -3 -778
-116 0 c-139 0 -180 -11 -240 -64 -142 -125 -114 -340 55 -423 l57 -28 252 -3
c164 -2 272 1 308 8 76 16 141 63 179 130 l31 55 0 940 0 940 -29 53 c-57 103
-179 158 -289 131z"/>
<path d="M2662 4311 c-66 -23 -136 -89 -159 -151 -16 -41 -18 -93 -18 -570 0
-409 3 -533 13 -562 20 -56 95 -134 150 -155 44 -17 96 -18 812 -18 l765 0 47
23 c54 27 113 88 136 141 19 45 19 145 -1 192 -22 54 -76 110 -132 135 l-50
24 -607 0 -607 0 -3 388 -3 387 -27 46 c-67 114 -196 163 -316 120z"/>
<path d="M889 2756 c-62 -22 -102 -50 -136 -94 -101 -132 -49 -321 107 -391
43 -20 64 -21 523 -21 l477 0 0 -358 c0 -411 3 -433 73 -509 54 -60 113 -85
192 -85 104 0 187 51 238 146 22 41 22 46 25 570 3 609 5 595 -80 678 -82 80
-63 78 -767 78 -480 -1 -624 -4 -652 -14z"/>
<path d="M2667 2756 c-93 -34 -158 -108 -176 -199 -6 -34 -9 -465 -8 -1207 l2
-1155 27 -51 c31 -59 74 -99 137 -127 35 -15 59 -18 115 -15 81 5 115 20 168
73 79 79 73 -14 76 1143 l2 1032 403 0 c383 0 404 1 447 21 124 56 187 192
146 315 -21 66 -62 113 -127 149 l-54 30 -560 2 c-453 2 -567 0 -598 -11z"/>
</g>
</svg>
